PathFileType	4	(X/Y/Z)	c:/Users/goper/Files/vsCode/490R/osim_files/C03/C03_ROM.trc
DataRate	CameraRate	NumFrames	NumMarkers	Units                	OrigDataRate	OrigDataStartFrame	OrigNumFrames
250.00	250.00	6	36	mm	250.0	914	3653
                Frame#	Time	LPSIS			LASIS			LTH1			LTH2			LTH3			LTH4			LLFE			LMFE			LSH1			LSH2			LSH3			LSH4			LLMAL			LMMAL			LCAL			LMTP5			LTOE			LMTP1			RPSIS			RASIS			RTH1			RTH2			RTH3			RTH4			RLFE			RMFE			RSH1			RSH2			RSH3			RSH4			RLMAL			RMMAL			RCAL			RMTP1			RTOE			RMTP5		
		X1	Y1	Z1	X2	Y2	Z2	X3	Y3	Z3	X4	Y4	Z4	X5	Y5	Z5	X6	Y6	Z6	X7	Y7	Z7	X8	Y8	Z8	X9	Y9	Z9	X10	Y10	Z10	X11	Y11	Z11	X12	Y12	Z12	X13	Y13	Z13	X14	Y14	Z14	X15	Y15	Z15	X16	Y16	Z16	X17	Y17	Z17	X18	Y18	Z18	X19	Y19	Z19	X20	Y20	Z20	X21	Y21	Z21	X22	Y22	Z22	X23	Y23	Z23	X24	Y24	Z24	X25	Y25	Z25	X26	Y26	Z26	X27	Y27	Z27	X28	Y28	Z28	X29	Y29	Z29	X30	Y30	Z30	X31	Y31	Z31	X32	Y32	Z32	X33	Y33	Z33	X34	Y34	Z34	X35	Y35	Z35	X36	Y36	Z36

914	3.65200	-419.54568	1028.70654	497.67380	-248.30550	940.65228	504.25452	-389.40707	637.65253	376.93158	-382.83771	577.19568	363.06070	-314.24655	641.47821	366.04111	-317.20901	581.10602	354.30688	-357.72089	496.01230	339.27008	-337.76074	454.67453	441.09280	-422.07709	322.67783	285.21518	-415.37738	278.73654	271.92294	-364.16791	333.94275	269.09204	-365.35724	287.41104	257.19641	-358.38925	116.01530	223.12341	-330.85513	110.01198	299.57761	-421.96909	77.08299	263.77310	-235.68349	49.84177	169.17694	-194.90804	65.82237	216.31364	-211.89813	54.51841	259.27985	-441.20016	1040.88025	605.94342	-292.06839	994.04187	698.99127	-446.53128	618.62970	708.13312	-445.88382	557.61627	696.32703	-392.69452	617.53448	744.53558	-384.39456	556.12469	740.54498	-384.92294	486.96423	720.99664	-363.74179	502.19818	610.97382	-460.36224	296.92847	698.26056	-452.50989	250.21864	697.59949	-406.45139	296.56299	729.67627	-408.13474	253.40610	724.73065	-391.22604	96.23118	695.39905	-352.10837	108.93990	625.01355	-438.03085	62.13469	635.70587	-231.59052	50.03303	634.61646	-214.37045	74.32581	686.88391	-273.87817	34.23262	736.98712
915	3.65600	-418.56265	1028.38721	499.05035	-247.03929	940.92554	505.53833	-388.37723	637.88855	378.38269	-381.69147	577.58313	364.03784	-313.00992	641.83008	367.11255	-315.90161	581.51562	355.09241	-356.66840	496.38974	340.07501	-336.78311	454.79440	441.80847	-421.22952	323.30557	285.68814	-414.37842	279.17563	272.53802	-363.54599	334.30884	269.58969	-364.60062	287.90518	257.63608	-358.04684	116.48080	223.32767	-330.38840	110.35528	299.73236	-422.16299	78.09676	263.92822	-235.66476	49.78922	169.15967	-194.69673	65.71365	216.20409	-211.63803	54.48702	259.23798	-440.33932	1040.58972	607.14087	-290.96533	994.43646	700.11237	-445.29822	618.69623	709.27258	-444.81155	557.80811	697.37103	-391.49756	617.57050	745.57373	-383.20291	556.17059	741.45520	-383.90659	486.94315	721.81262	-362.77734	502.37131	611.81824	-459.80502	297.20844	698.80780	-452.10782	250.44247	698.00092	-405.86908	296.58563	730.16345	-407.70789	253.38924	725.11725	-391.15158	96.22650	695.51892	-352.05191	108.97535	625.12555	-437.85962	62.22045	635.66650	-231.57747	49.96870	634.63501	-214.32262	74.23325	686.89056	-273.81534	34.17776	737.01074
916	3.66000	-417.50726	1028.13904	500.33597	-245.70076	941.27283	506.75809	-387.12122	638.28131	379.36453	-380.93036	577.84369	365.14645	-311.87454	642.11896	368.09210	-314.90912	581.78027	356.05908	-355.59378	496.76950	340.82321	-335.72061	454.99667	442.46747	-420.49301	323.81775	286.23575	-413.66519	279.79523	273.00647	-362.58371	334.83176	270.18216	-363.81598	288.42438	258.05890	-357.70914	116.98672	223.53271	-329.96271	110.69344	299.87393	-421.97333	78.84561	264.29327	-235.63449	49.78671	169.16148	-194.49922	65.62565	216.10223	-211.36206	54.49936	259.18710	-439.45789	1040.26367	608.33276	-289.82367	994.91492	701.22290	-444.15283	618.84686	710.40039	-443.78351	557.98535	698.39166	-390.32150	617.60248	746.53107	-382.10767	556.17609	742.34442	-383.08835	486.93631	722.63617	-361.87170	502.53571	612.65936	-459.35043	297.44495	699.26556	-451.73920	250.65248	698.40002	-405.36304	296.58524	730.67804	-407.33676	253.39143	725.47607	-391.11536	96.23435	695.62042	-352.01373	109.04719	625.23730	-437.96896	62.25890	635.79919	-231.71571	49.74354	634.80304	-214.28947	74.17929	686.88147	-273.76901	34.15682	737.02332
917	3.66400	-416.56262	1027.88049	501.43082	-244.29900	941.62872	507.86008	-385.87637	638.76959	380.07880	-379.39700	578.37701	365.80728	-310.63089	642.47693	369.06674	-313.78015	582.16510	356.95346	-354.58856	497.13174	341.59619	-334.63690	455.21594	443.10504	-419.70432	324.35666	286.70966	-412.92987	280.33246	273.43692	-361.81595	335.31012	270.67068	-363.22760	288.82492	258.47772	-357.16403	117.44567	223.89552	-329.58731	111.00403	300.00623	-421.71872	79.40155	264.55820	-235.64047	49.80880	169.15591	-194.36703	65.52716	216.00708	-211.14841	54.47945	259.15543	-438.56952	1039.92639	609.58429	-288.72531	995.33795	702.34064	-443.20386	619.00305	711.46472	-442.63275	558.09235	699.42181	-389.19907	617.62378	747.51837	-380.59100	556.24426	743.39172	-382.16147	486.97348	723.43433	-360.97852	502.66119	613.44543	-458.81686	297.57065	699.73859	-451.22501	250.77940	698.79584	-404.91400	296.56094	731.10760	-406.88531	253.41795	725.89935	-391.53000	96.40592	695.17108	-351.93539	109.15015	625.35852	-437.98492	62.33837	635.85272	-231.68311	49.72066	634.80237	-214.26477	74.12157	686.87683	-273.78394	34.09285	737.03345
918	3.66800	-415.59967	1027.67810	502.53522	-242.34247	942.12384	508.90631	-384.55478	639.08740	380.94775	-378.65799	578.58765	366.91055	-309.34967	642.79724	369.98950	-312.59454	582.48621	357.75784	-353.49896	497.48785	342.33554	-333.62875	455.39484	443.76733	-418.96262	324.87897	287.25327	-412.25659	280.82465	273.76093	-361.00720	335.73279	271.13275	-362.39569	289.38058	258.94745	-357.07791	117.88634	223.85585	-329.17200	111.32997	300.15805	-421.26877	79.93032	264.75079	-235.58975	49.78888	169.17186	-194.19328	65.47327	215.91811	-210.96129	54.48654	259.11154	-437.75116	1039.63550	610.64075	-287.58124	995.76044	703.37738	-442.13297	619.10345	712.56311	-441.59283	558.13525	700.35846	-388.05719	617.69379	748.46356	-379.86292	556.28339	744.07611	-381.28287	487.00186	724.16913	-359.97720	502.91284	614.25562	-458.22684	297.66678	700.23047	-450.81000	250.88452	699.18219	-404.37369	296.52716	731.57349	-406.48376	253.42012	726.34869	-391.52539	96.43771	695.27039	-351.87189	109.25209	625.48218	-437.96814	62.40142	635.89569	-231.64543	49.71595	634.80505	-214.26300	74.03815	686.88885	-273.76505	34.04754	737.05200
919	3.67200	-414.56497	1027.37097	503.77597	-241.02106	942.42926	509.97134	-383.47491	639.39160	382.26007	-377.50745	578.99585	367.68561	-308.12454	643.08594	370.87640	-311.40186	582.84625	358.56393	-352.38361	497.82712	343.03098	-332.46912	455.54089	444.36804	-418.14590	325.41415	287.65408	-411.82336	281.46036	274.06888	-360.17456	336.20349	271.62750	-361.64514	289.84592	259.34171	-357.02881	118.36810	223.87866	-328.77716	111.61418	300.28729	-420.51447	80.35558	265.42099	-235.57201	49.84893	169.12402	-194.03197	65.42416	215.80376	-210.71661	54.48238	259.04733	-436.71594	1039.29224	611.71393	-286.46429	996.16278	704.35352	-440.97653	619.21350	713.52710	-440.75888	558.32904	701.22162	-386.95163	617.76599	749.38135	-378.71857	556.37354	744.91022	-380.27307	487.06247	724.98120	-358.92542	503.11569	615.11462	-457.71188	297.87677	700.69708	-450.43817	251.02367	699.56213	-403.78714	296.54968	732.07220	-406.08887	253.44745	726.70898	-391.52017	96.46716	695.35596	-351.82306	109.35845	625.59827	-437.94067	62.47723	635.95831	-231.45885	49.88627	634.61487	-214.22560	73.98462	686.85876	-273.76773	34.00192	737.05396
